<svg width="174" height="88" viewBox="0 0 174 88" fill="none" xmlns="http://www.w3.org/2000/svg">
<path d="M12.4116 82.1025V81.8849C12.6117 81.7899 12.8168 81.7298 13.0269 81.7048V77.2549C12.9269 77.2349 12.8243 77.2099 12.7193 77.1799C12.6142 77.1449 12.5116 77.1073 12.4116 77.0673V76.8497H13.207C13.3021 76.8497 13.3921 76.8472 13.4772 76.8422C13.5672 76.8372 13.6598 76.8322 13.7548 76.8272C13.8499 76.8222 13.9524 76.8172 14.0625 76.8122C14.1725 76.8072 14.2976 76.8047 14.4377 76.8047C14.6378 76.8047 14.8404 76.8222 15.0455 76.8572C15.2556 76.8872 15.4432 76.9473 15.6083 77.0373C15.7784 77.1274 15.916 77.2549 16.021 77.42C16.1261 77.5801 16.1786 77.7902 16.1786 78.0504C16.1786 78.1804 16.1586 78.3105 16.1186 78.4406C16.0786 78.5706 16.016 78.6932 15.931 78.8083C15.8509 78.9183 15.7484 79.0159 15.6233 79.1009C15.4983 79.186 15.3507 79.2485 15.1806 79.2885V79.3185C15.3307 79.3436 15.4782 79.3861 15.6233 79.4461C15.7734 79.5061 15.906 79.5887 16.021 79.6937C16.1361 79.7938 16.2286 79.9189 16.2987 80.0689C16.3737 80.219 16.4112 80.3991 16.4112 80.6092C16.4112 80.8794 16.3512 81.112 16.2311 81.3071C16.1111 81.5022 15.9535 81.6623 15.7584 81.7874C15.5683 81.9124 15.3507 82.005 15.1055 82.065C14.8604 82.12 14.6128 82.1476 14.3626 82.1476C14.1875 82.1476 13.9899 82.1401 13.7698 82.1251C13.5497 82.11 13.3371 82.1025 13.132 82.1025H12.4116ZM14.4152 81.7574C14.5953 81.7574 14.7629 81.7298 14.9179 81.6748C15.078 81.6198 15.2131 81.5447 15.3232 81.4497C15.4382 81.3496 15.5283 81.2321 15.5933 81.097C15.6583 80.9569 15.6909 80.8068 15.6909 80.6468C15.6909 80.4466 15.6508 80.2816 15.5708 80.1515C15.4957 80.0164 15.3907 79.9114 15.2556 79.8363C15.1255 79.7563 14.973 79.7012 14.7979 79.6712C14.6278 79.6412 14.4502 79.6262 14.2651 79.6262H13.7023V81.6973C13.7723 81.7173 13.8549 81.7323 13.9499 81.7423C14.05 81.7524 14.2051 81.7574 14.4152 81.7574ZM14.0775 79.236C14.1625 79.236 14.2626 79.2335 14.3776 79.2285C14.4977 79.2185 14.5953 79.2085 14.6703 79.1985C14.9004 79.1184 15.088 78.9909 15.2331 78.8158C15.3832 78.6357 15.4582 78.4256 15.4582 78.1854C15.4582 77.8553 15.3582 77.6076 15.1581 77.4425C14.963 77.2774 14.7003 77.1949 14.3701 77.1949C14.2151 77.1949 14.0825 77.1974 13.9724 77.2024C13.8624 77.2074 13.7723 77.2149 13.7023 77.2249V79.236H14.0775Z" fill="black"/>
<path d="M22.5316 76.4448C22.5272 76.6199 22.5185 76.7972 22.5053 76.9766C22.4966 77.1517 22.4813 77.329 22.4594 77.5085H22.2887L22.0194 76.7862H20.5881V78.5262H21.6583L21.9144 78.0403H22.0785C22.1048 78.4737 22.1048 78.9158 22.0785 79.3667H21.9144L21.6583 78.8677H20.5881V80.6996H22.0982L22.42 79.9117H22.5841C22.6148 80.0955 22.6367 80.2815 22.6498 80.4698C22.6629 80.658 22.6651 80.8484 22.6564 81.041H19.4193V80.8506C19.5725 80.7806 19.752 80.728 19.9577 80.693V76.7994C19.8702 76.7818 19.7804 76.76 19.6885 76.7337C19.5966 76.7031 19.5068 76.6702 19.4193 76.6352V76.4448H22.5316ZM26.5108 80.693C26.6115 80.7149 26.7078 80.739 26.7997 80.7652C26.8917 80.7871 26.9814 80.8156 27.0689 80.8506V81.041H25.3421V80.8506C25.4384 80.8068 25.5303 80.774 25.6178 80.7521C25.7054 80.7302 25.7929 80.7105 25.8805 80.693V76.7994C25.7667 76.7775 25.666 76.7534 25.5784 76.7271C25.4909 76.6965 25.4121 76.6658 25.3421 76.6352V76.4448H25.9199C26.095 76.4448 26.2854 76.436 26.4911 76.4185C26.7012 76.401 26.9048 76.3923 27.1018 76.3923C27.3163 76.3923 27.5154 76.4163 27.6993 76.4645C27.8875 76.5126 28.0495 76.5892 28.1852 76.6943C28.3209 76.7994 28.4259 76.9329 28.5003 77.0948C28.5791 77.2568 28.6185 77.4516 28.6185 77.6792C28.6185 77.9988 28.5332 78.2636 28.3624 78.4737C28.1961 78.6838 27.9685 78.8348 27.6796 78.9268C27.8678 79.2244 28.0648 79.5199 28.2705 79.8132C28.4763 80.1064 28.6907 80.3975 28.914 80.6864L29.2686 80.8769V81.041H28.4741L28.2246 80.8572C28.102 80.704 27.9904 80.5551 27.8897 80.4107C27.789 80.2618 27.6949 80.113 27.6074 79.9642C27.5198 79.811 27.4366 79.6578 27.3578 79.5046C27.2834 79.347 27.2068 79.1806 27.128 79.0055H26.5108V80.693ZM26.9573 76.7337C26.8523 76.7337 26.7647 76.7359 26.6947 76.7403C26.629 76.7446 26.5677 76.7534 26.5108 76.7665V78.7298H26.9836C27.2856 78.7298 27.5242 78.6335 27.6993 78.4409C27.8787 78.2483 27.9685 77.9944 27.9685 77.6792C27.9685 77.3553 27.8744 77.1167 27.6861 76.9635C27.4979 76.8103 27.255 76.7337 26.9573 76.7337ZM33.9417 76.4448H35.3928V76.6352C35.3053 76.6746 35.2199 76.7074 35.1367 76.7337C35.0536 76.76 34.9726 76.7818 34.8938 76.7994L33.574 78.5459C33.6835 78.6904 33.8082 78.8523 33.9483 79.0318C34.0927 79.2113 34.2416 79.3973 34.3948 79.5899C34.5524 79.7781 34.7121 79.9708 34.8741 80.1677C35.0404 80.3603 35.2024 80.5442 35.36 80.7193L35.6752 80.8769V81.041H34.8544L34.6312 80.8834C34.3729 80.5814 34.1146 80.2553 33.8564 79.9051C33.6025 79.5549 33.3552 79.2003 33.1144 78.8414H32.7927V80.693C32.994 80.728 33.1582 80.7806 33.2851 80.8506V81.041H31.6239V80.8506C31.799 80.7806 31.9785 80.728 32.1623 80.693V76.7994C31.9654 76.7731 31.7859 76.7184 31.6239 76.6352V76.4448H33.2851V76.6352C33.2151 76.6658 33.1385 76.6965 33.0553 76.7271C32.9721 76.7534 32.8846 76.7775 32.7927 76.7994V78.6181L33.1866 78.5262L34.4145 76.7994C34.3269 76.7775 34.2438 76.7534 34.165 76.7271C34.0862 76.7009 34.0118 76.6702 33.9417 76.6352V76.4448ZM41.0822 76.4448C41.0778 76.6199 41.0691 76.7972 41.0559 76.9766C41.0472 77.1517 41.0319 77.329 41.01 77.5085H40.8393L40.57 76.7862H39.1386V78.5262H40.2089L40.465 78.0403H40.6291C40.6554 78.4737 40.6554 78.9158 40.6291 79.3667H40.465L40.2089 78.8677H39.1386V80.6996H40.6488L40.9706 79.9117H41.1347C41.1654 80.0955 41.1873 80.2815 41.2004 80.4698C41.2135 80.658 41.2157 80.8484 41.2069 81.041H37.9699V80.8506C38.1231 80.7806 38.3026 80.728 38.5083 80.693V76.7994C38.4208 76.7818 38.331 76.76 38.2391 76.7337C38.1472 76.7031 38.0574 76.6702 37.9699 76.6352V76.4448H41.0822ZM43.8927 76.4448H45.6918V76.6352C45.5867 76.6746 45.4816 76.7096 45.3766 76.7403C45.2715 76.7665 45.1665 76.7862 45.0614 76.7994V80.6996H46.5716L46.959 79.6424H47.1297C47.1429 79.7344 47.1538 79.8416 47.1625 79.9642C47.1757 80.0824 47.1844 80.2071 47.1888 80.3384C47.1976 80.4654 47.2019 80.5901 47.2019 80.7127C47.2019 80.8353 47.1998 80.9447 47.1954 81.041H43.8927V80.8506C43.9977 80.8024 44.094 80.7674 44.1816 80.7455C44.2691 80.7237 44.3523 80.7061 44.4311 80.693V76.7994C44.3304 76.7818 44.2341 76.76 44.1422 76.7337C44.0502 76.7031 43.9671 76.6702 43.8927 76.6352V76.4448ZM52.7097 76.4448C52.7053 76.6199 52.6966 76.7972 52.6835 76.9766C52.6747 77.1517 52.6594 77.329 52.6375 77.5085H52.4668L52.1976 76.7862H50.7662V78.5262H51.8364L52.0925 78.0403H52.2567C52.2829 78.4737 52.2829 78.9158 52.2567 79.3667H52.0925L51.8364 78.8677H50.7662V80.6996H52.2764L52.5981 79.9117H52.7623C52.7929 80.0955 52.8148 80.2815 52.8279 80.4698C52.841 80.658 52.8432 80.8484 52.8345 81.041H49.5974V80.8506C49.7506 80.7806 49.9301 80.728 50.1358 80.693V76.7994C50.0483 76.7818 49.9586 76.76 49.8666 76.7337C49.7747 76.7031 49.685 76.6702 49.5974 76.6352V76.4448H52.7097ZM58.1138 76.4448H59.5583V76.6352C59.392 76.7184 59.2256 76.7731 59.0593 76.7994L57.8183 79.0843V80.693C57.989 80.7149 58.1554 80.7674 58.3173 80.8506V81.041H56.6496V80.8506C56.8071 80.7718 56.9866 80.7193 57.188 80.693V79.0909L55.8616 76.7994C55.7609 76.7818 55.6668 76.76 55.5793 76.7337C55.4961 76.7031 55.4129 76.6702 55.3298 76.6352V76.4448H57.0698V76.6352C57.0041 76.6615 56.9297 76.6899 56.8465 76.7206C56.7634 76.7468 56.6692 76.7731 56.5642 76.7994L57.641 78.7298L58.6522 76.7994C58.5515 76.7775 58.4552 76.7534 58.3633 76.7271C58.2757 76.6965 58.1926 76.6658 58.1138 76.6352V76.4448Z" fill="black"/>
<path d="M139.643 81.7423C139.548 81.7974 139.435 81.8524 139.305 81.9074C139.18 81.9575 139.045 82.005 138.9 82.05C138.76 82.09 138.617 82.1225 138.472 82.1476C138.332 82.1776 138.199 82.1926 138.074 82.1926C137.674 82.1926 137.314 82.1401 136.994 82.035C136.673 81.9249 136.401 81.7599 136.176 81.5397C135.951 81.3146 135.776 81.032 135.65 80.6918C135.53 80.3516 135.47 79.9464 135.47 79.4761C135.47 78.9859 135.54 78.5681 135.68 78.2229C135.826 77.8778 136.016 77.5976 136.251 77.3825C136.491 77.1624 136.761 77.0048 137.061 76.9097C137.366 76.8097 137.677 76.7597 137.992 76.7597C138.322 76.7597 138.6 76.7822 138.825 76.8272C139.055 76.8672 139.255 76.9298 139.425 77.0148C139.425 77.0898 139.422 77.1824 139.417 77.2924C139.412 77.4025 139.405 77.5176 139.395 77.6376C139.385 77.7577 139.372 77.8778 139.357 77.9978C139.342 78.1129 139.327 78.2154 139.312 78.3055H139.117L138.727 77.2249C138.672 77.1949 138.58 77.1749 138.449 77.1649C138.319 77.1549 138.192 77.1499 138.067 77.1499C137.817 77.1499 137.579 77.1974 137.354 77.2924C137.129 77.3825 136.931 77.5251 136.761 77.7202C136.596 77.9103 136.463 78.1529 136.363 78.4481C136.263 78.7382 136.213 79.0809 136.213 79.4761C136.213 79.8313 136.261 80.1515 136.356 80.4366C136.456 80.7218 136.591 80.9669 136.761 81.172C136.936 81.3721 137.139 81.5272 137.369 81.6373C137.604 81.7473 137.857 81.8024 138.127 81.8024C138.227 81.8024 138.324 81.7924 138.419 81.7724C138.514 81.7524 138.602 81.7298 138.682 81.7048C138.762 81.6748 138.827 81.6448 138.877 81.6148C138.932 81.5848 138.97 81.5597 138.99 81.5397V80.0239C138.86 80.0139 138.735 79.9914 138.615 79.9564C138.499 79.9214 138.384 79.8838 138.269 79.8438V79.6262H140.108V79.8438C140.058 79.8788 139.998 79.9114 139.928 79.9414C139.858 79.9714 139.763 79.9989 139.643 80.0239V81.7423Z" fill="black"/>
<path d="M144.405 80.693C144.506 80.7149 144.602 80.739 144.694 80.7652C144.786 80.7871 144.875 80.8156 144.963 80.8506V81.041H143.236V80.8506C143.332 80.8068 143.424 80.774 143.512 80.7521C143.599 80.7302 143.687 80.7105 143.774 80.693V76.7994C143.661 76.7775 143.56 76.7534 143.472 76.7271C143.385 76.6965 143.306 76.6658 143.236 76.6352V76.4448H143.814C143.989 76.4448 144.179 76.436 144.385 76.4185C144.595 76.401 144.799 76.3923 144.996 76.3923C145.21 76.3923 145.409 76.4163 145.593 76.4645C145.782 76.5126 145.943 76.5892 146.079 76.6943C146.215 76.7994 146.32 76.9329 146.394 77.0948C146.473 77.2568 146.513 77.4516 146.513 77.6792C146.513 77.9988 146.427 78.2636 146.256 78.4737C146.09 78.6838 145.862 78.8348 145.574 78.9268C145.762 79.2244 145.959 79.5199 146.165 79.8132C146.37 80.1064 146.585 80.3975 146.808 80.6864L147.163 80.8769V81.041H146.368L146.119 80.8572C145.996 80.704 145.884 80.5551 145.784 80.4107C145.683 80.2618 145.589 80.113 145.501 79.9642C145.414 79.811 145.331 79.6578 145.252 79.5046C145.177 79.347 145.101 79.1806 145.022 79.0055H144.405V80.693ZM144.851 76.7337C144.746 76.7337 144.659 76.7359 144.589 76.7403C144.523 76.7446 144.462 76.7534 144.405 76.7665V78.7298H144.878C145.18 78.7298 145.418 78.6335 145.593 78.4409C145.773 78.2483 145.862 77.9944 145.862 77.6792C145.862 77.3553 145.768 77.1167 145.58 76.9635C145.392 76.8103 145.149 76.7337 144.851 76.7337ZM149.47 78.7429C149.47 78.4015 149.516 78.0863 149.608 77.7974C149.705 77.5041 149.84 77.2524 150.015 77.0423C150.195 76.8278 150.414 76.6615 150.672 76.5433C150.93 76.4251 151.223 76.366 151.552 76.366C151.88 76.366 152.173 76.4251 152.432 76.5433C152.69 76.6615 152.907 76.8278 153.082 77.0423C153.261 77.2524 153.397 77.5041 153.489 77.7974C153.585 78.0863 153.633 78.4015 153.633 78.7429C153.633 79.0843 153.585 79.4017 153.489 79.695C153.397 79.9839 153.261 80.2356 153.082 80.4501C152.907 80.6602 152.69 80.8243 152.432 80.9425C152.173 81.0607 151.88 81.1198 151.552 81.1198C151.223 81.1198 150.93 81.0607 150.672 80.9425C150.414 80.8243 150.195 80.6602 150.015 80.4501C149.84 80.2356 149.705 79.9839 149.608 79.695C149.516 79.4017 149.47 79.0843 149.47 78.7429ZM150.173 78.7429C150.173 79.0231 150.201 79.2879 150.258 79.5374C150.32 79.7825 150.409 79.997 150.527 80.1809C150.646 80.3647 150.794 80.5114 150.974 80.6208C151.153 80.7258 151.366 80.7784 151.611 80.7784C151.834 80.7784 152.029 80.7258 152.195 80.6208C152.362 80.5114 152.497 80.3647 152.602 80.1809C152.712 79.997 152.793 79.7825 152.845 79.5374C152.902 79.2879 152.931 79.0231 152.931 78.7429C152.931 78.4628 152.902 78.2001 152.845 77.955C152.788 77.7055 152.701 77.4888 152.583 77.3049C152.464 77.1211 152.316 76.9766 152.136 76.8716C151.957 76.7621 151.744 76.7074 151.499 76.7074C151.258 76.7074 151.053 76.7621 150.882 76.8716C150.716 76.9766 150.58 77.1211 150.475 77.3049C150.37 77.4888 150.293 77.7055 150.245 77.955C150.197 78.2001 150.173 78.4628 150.173 78.7429ZM156.15 76.4448H157.817V76.6352C157.734 76.6702 157.651 76.7009 157.568 76.7271C157.485 76.7534 157.401 76.7775 157.318 76.7994V79.4849C157.318 79.7169 157.342 79.9117 157.39 80.0692C157.443 80.2224 157.517 80.3472 157.614 80.4435C157.71 80.5354 157.828 80.6033 157.968 80.6471C158.113 80.6864 158.275 80.7061 158.454 80.7061C158.8 80.7061 159.069 80.612 159.262 80.4238C159.454 80.2312 159.551 79.916 159.551 79.4783V76.8584C159.45 76.8234 159.356 76.7884 159.268 76.7534C159.181 76.714 159.102 76.6746 159.032 76.6352V76.4448H160.431V76.6352C160.347 76.6834 160.262 76.7271 160.174 76.7665C160.091 76.8059 160.006 76.8366 159.918 76.8584V79.4914C159.918 79.7716 159.881 80.0123 159.807 80.2137C159.732 80.4151 159.627 80.5814 159.492 80.7127C159.36 80.844 159.198 80.9425 159.006 81.0082C158.818 81.0695 158.607 81.1001 158.375 81.1001C157.828 81.1001 157.41 80.9775 157.121 80.7324C156.832 80.4829 156.688 80.1021 156.688 79.5899V76.7994C156.508 76.7731 156.329 76.7184 156.15 76.6352V76.4448ZM163.956 80.693C164.074 80.7061 164.186 80.728 164.291 80.7587C164.396 80.7849 164.494 80.8156 164.586 80.8506V81.041H162.787V80.8506C162.875 80.8068 162.964 80.774 163.056 80.7521C163.148 80.7302 163.238 80.7105 163.325 80.693V76.7994C163.225 76.7818 163.131 76.76 163.043 76.7337C162.955 76.7031 162.87 76.6702 162.787 76.6352V76.4448H163.378C163.553 76.4448 163.743 76.436 163.949 76.4185C164.155 76.401 164.352 76.3923 164.54 76.3923C164.755 76.3923 164.965 76.4163 165.17 76.4645C165.376 76.5083 165.558 76.5849 165.715 76.6943C165.877 76.8037 166.007 76.9504 166.103 77.1342C166.203 77.3137 166.254 77.5391 166.254 77.8105C166.254 78.0688 166.203 78.2898 166.103 78.4737C166.002 78.6575 165.866 78.8086 165.696 78.9268C165.529 79.0449 165.339 79.1325 165.124 79.1894C164.91 79.2419 164.689 79.2682 164.461 79.2682C164.439 79.2682 164.404 79.2682 164.356 79.2682C164.312 79.2682 164.264 79.2682 164.212 79.2682C164.159 79.2638 164.109 79.2594 164.061 79.2551C164.013 79.2507 163.978 79.2463 163.956 79.2419V80.693ZM164.402 76.7337C164.297 76.7337 164.212 76.7359 164.146 76.7403C164.08 76.7446 164.017 76.7534 163.956 76.7665V78.8939C163.978 78.9027 164.008 78.9092 164.048 78.9136C164.091 78.9136 164.135 78.9158 164.179 78.9202C164.227 78.9246 164.273 78.9268 164.317 78.9268C164.361 78.9268 164.396 78.9268 164.422 78.9268C164.575 78.9268 164.72 78.9071 164.855 78.8677C164.991 78.8239 165.109 78.756 165.21 78.6641C165.315 78.5722 165.398 78.4562 165.459 78.3161C165.521 78.176 165.551 78.0075 165.551 77.8105C165.551 77.4516 165.448 77.1824 165.243 77.0029C165.041 76.8234 164.761 76.7337 164.402 76.7337Z" fill="black"/>
<path d="M68.8795 82.1025H66.9585V81.8849C67.1536 81.7949 67.3537 81.7348 67.5588 81.7048V77.2549C67.4587 77.2349 67.3587 77.2099 67.2586 77.1799C67.1586 77.1449 67.0585 77.1073 66.9585 77.0673V76.8497H68.8795V77.0673C68.7894 77.1073 68.6919 77.1449 68.5868 77.1799C68.4818 77.2099 68.3792 77.2349 68.2792 77.2549V81.7048C68.3842 81.7248 68.4893 81.7498 68.5943 81.7799C68.6994 81.8099 68.7944 81.8449 68.8795 81.8849V82.1025Z" fill="black"/>
<path d="M74.9549 76.4448H76.3731V76.6352C76.1893 76.7578 76.0098 76.8453 75.8347 76.8978V81.1198H75.4604L73.077 77.5019L72.8209 76.9898H72.8012L72.8603 77.5019V80.6208C73.0398 80.6689 73.2083 80.7455 73.3659 80.8506V81.041H71.9476V80.8506C72.0264 80.8024 72.1096 80.7609 72.1971 80.7258C72.2891 80.6864 72.3854 80.6514 72.486 80.6208V76.8584C72.3985 76.8234 72.3109 76.7862 72.2234 76.7468C72.1402 76.7074 72.0614 76.668 71.987 76.6286V76.4448H73.0967L75.165 79.5637L75.467 80.1283H75.4933L75.4604 79.5637V76.8978C75.3685 76.8584 75.2788 76.8169 75.1912 76.7731C75.1081 76.7293 75.0293 76.6834 74.9549 76.6352V76.4448ZM82.2459 76.7994C82.1409 76.7775 82.0424 76.7534 81.9505 76.7271C81.8585 76.6965 81.7688 76.6658 81.6813 76.6352V76.4448H83.1586V76.6352C83.0317 76.7052 82.8741 76.76 82.6859 76.7994L81.2019 81.041L80.8408 81.1198L79.1665 76.7994C79.0789 76.7775 78.9936 76.7534 78.9104 76.7271C78.8272 76.6965 78.7462 76.6658 78.6674 76.6352V76.4448H80.4074V76.6352C80.333 76.6658 80.2499 76.6965 80.1579 76.7271C80.066 76.7534 79.9697 76.7775 79.869 76.7994L80.9918 79.8L81.1297 80.3253H81.1428L81.2742 79.7869L82.2459 76.7994ZM88.5598 76.4448C88.5554 76.6199 88.5467 76.7972 88.5335 76.9766C88.5248 77.1517 88.5095 77.329 88.4876 77.5085H88.3169L88.0476 76.7862H86.6162V78.5262H87.6865L87.9426 78.0403H88.1067C88.133 78.4737 88.133 78.9158 88.1067 79.3667H87.9426L87.6865 78.8677H86.6162V80.6996H88.1264L88.4482 79.9117H88.6123C88.643 80.0955 88.6649 80.2815 88.678 80.4698C88.6911 80.658 88.6933 80.8484 88.6845 81.041H85.4475V80.8506C85.6007 80.7806 85.7802 80.728 85.9859 80.693V76.7994C85.8984 76.7818 85.8086 76.76 85.7167 76.7337C85.6248 76.7031 85.535 76.6702 85.4475 76.6352V76.4448H88.5598ZM92.1648 80.588C92.2173 80.6405 92.2851 80.6864 92.3683 80.7258C92.4515 80.7609 92.5762 80.7784 92.7426 80.7784C92.8826 80.7784 93.014 80.7609 93.1365 80.7258C93.2591 80.6864 93.3642 80.6317 93.4517 80.5617C93.5436 80.4873 93.6158 80.3997 93.6684 80.2991C93.7209 80.194 93.7472 80.0758 93.7472 79.9445C93.7472 79.7694 93.6925 79.6228 93.583 79.5046C93.478 79.3864 93.3445 79.2813 93.1825 79.1894C93.0249 79.0975 92.852 79.0077 92.6638 78.9202C92.4755 78.8326 92.3005 78.7298 92.1385 78.6116C91.9809 78.489 91.8474 78.3446 91.738 78.1782C91.6329 78.0075 91.5804 77.7952 91.5804 77.5413C91.5804 77.3575 91.6132 77.1933 91.6789 77.0489C91.7445 76.9044 91.8365 76.7818 91.9546 76.6812C92.0772 76.5805 92.2217 76.5039 92.388 76.4514C92.5543 76.3944 92.7404 76.366 92.9461 76.366C93.2131 76.366 93.4561 76.3879 93.6749 76.4317C93.8982 76.4711 94.0733 76.5214 94.2002 76.5827C94.2002 76.6571 94.1937 76.7446 94.1805 76.8453C94.1718 76.9416 94.1586 77.0423 94.1411 77.1474C94.128 77.2524 94.1127 77.3553 94.0952 77.456C94.0777 77.5523 94.0602 77.6376 94.0426 77.712H93.8719L93.6093 76.8125C93.5305 76.7775 93.4298 76.7512 93.3072 76.7337C93.1891 76.7162 93.0621 76.7074 92.9264 76.7074C92.7032 76.7074 92.5237 76.7709 92.388 76.8978C92.2523 77.0204 92.1845 77.1933 92.1845 77.4166C92.1845 77.596 92.237 77.7471 92.342 77.8696C92.4515 77.9922 92.5872 78.1016 92.7491 78.1979C92.9111 78.2942 93.084 78.3883 93.2678 78.4803C93.4561 78.5678 93.6312 78.6707 93.7931 78.7889C93.9551 78.9071 94.0886 79.0471 94.1937 79.2091C94.3031 79.3711 94.3578 79.5724 94.3578 79.8132C94.3578 80.0101 94.3206 80.1896 94.2462 80.3516C94.1762 80.5135 94.0733 80.6514 93.9376 80.7652C93.8019 80.8791 93.6355 80.9666 93.4386 81.0279C93.2416 81.0892 93.0183 81.1198 92.7688 81.1198C92.4931 81.1198 92.2457 81.087 92.0269 81.0213C91.808 80.9557 91.6526 80.8856 91.5607 80.8112C91.5651 80.7368 91.5716 80.6471 91.5804 80.542C91.5935 80.4369 91.6066 80.3297 91.6198 80.2203C91.6373 80.1064 91.6548 79.997 91.6723 79.892C91.6898 79.7869 91.7073 79.6972 91.7248 79.6228H91.8955L92.1648 80.588ZM99.756 81.041H97.9109V80.8506C98.0072 80.8156 98.1035 80.7849 98.1998 80.7587C98.3005 80.7324 98.4077 80.7105 98.5216 80.693V76.7862H97.5169L97.1689 77.7252H97.0048C96.9917 77.6376 96.9807 77.5391 96.972 77.4297C96.9632 77.3159 96.9545 77.2021 96.9457 77.0883C96.9413 76.9701 96.9369 76.8563 96.9326 76.7468C96.9282 76.633 96.926 76.5323 96.926 76.4448H100.741C100.741 76.5323 100.739 76.6308 100.734 76.7403C100.73 76.8497 100.723 76.9635 100.715 77.0817C100.71 77.1955 100.704 77.3093 100.695 77.4231C100.691 77.5326 100.682 77.6332 100.669 77.7252H100.498L100.156 76.7862H99.1519V80.693C99.2657 80.7149 99.3708 80.7368 99.4671 80.7587C99.5677 80.7806 99.664 80.8112 99.756 80.8506V81.041ZM108.463 81.041H106.835V80.8506C106.923 80.8156 107.01 80.7871 107.098 80.7652C107.185 80.739 107.275 80.7149 107.367 80.693V77.7383L107.393 76.9701H107.341L107.124 77.6726L105.778 81.041H105.607L104.327 77.6726L104.09 76.9044H104.031L104.038 77.7383V80.693C104.121 80.7105 104.204 80.7324 104.287 80.7587C104.371 80.7849 104.454 80.8156 104.537 80.8506V81.041H103.165V80.8506C103.248 80.8156 103.333 80.7849 103.421 80.7587C103.513 80.728 103.605 80.704 103.697 80.6864V76.7994C103.605 76.7818 103.513 76.76 103.421 76.7337C103.333 76.7031 103.246 76.6702 103.158 76.6352V76.4448H104.504L105.647 79.4455L105.87 80.1218H105.876L106.1 79.4323L107.282 76.4448H108.47V76.6352C108.391 76.6702 108.31 76.7031 108.227 76.7337C108.144 76.76 108.059 76.7818 107.971 76.7994V80.6996C108.063 80.7171 108.148 80.739 108.227 80.7652C108.31 80.7871 108.389 80.8156 108.463 80.8506V81.041ZM114.066 76.4448C114.061 76.6199 114.052 76.7972 114.039 76.9766C114.031 77.1517 114.015 77.329 113.993 77.5085H113.823L113.553 76.7862H112.122V78.5262H113.192L113.448 78.0403H113.612C113.639 78.4737 113.639 78.9158 113.612 79.3667H113.448L113.192 78.8677H112.122V80.6996H113.632L113.954 79.9117H114.118C114.149 80.0955 114.171 80.2815 114.184 80.4698C114.197 80.658 114.199 80.8484 114.19 81.041H110.953V80.8506C111.106 80.7806 111.286 80.728 111.492 80.693V76.7994C111.404 76.7818 111.314 76.76 111.222 76.7337C111.131 76.7031 111.041 76.6702 110.953 76.6352V76.4448H114.066ZM119.883 76.4448H121.301V76.6352C121.118 76.7578 120.938 76.8453 120.763 76.8978V81.1198H120.389L118.005 77.5019L117.749 76.9898H117.73L117.789 77.5019V80.6208C117.968 80.6689 118.137 80.7455 118.294 80.8506V81.041H116.876V80.8506C116.955 80.8024 117.038 80.7609 117.125 80.7258C117.217 80.6864 117.314 80.6514 117.414 80.6208V76.8584C117.327 76.8234 117.239 76.7862 117.152 76.7468C117.069 76.7074 116.99 76.668 116.915 76.6286V76.4448H118.025L120.093 79.5637L120.395 80.1283H120.422L120.389 79.5637V76.8978C120.297 76.8584 120.207 76.8169 120.12 76.7731C120.036 76.7293 119.958 76.6834 119.883 76.6352V76.4448ZM126.551 81.041H124.705V80.8506C124.802 80.8156 124.898 80.7849 124.994 80.7587C125.095 80.7324 125.202 80.7105 125.316 80.693V76.7862H124.312L123.964 77.7252H123.799C123.786 77.6376 123.775 77.5391 123.767 77.4297C123.758 77.3159 123.749 77.2021 123.74 77.0883C123.736 76.9701 123.732 76.8563 123.727 76.7468C123.723 76.633 123.721 76.5323 123.721 76.4448H127.535C127.535 76.5323 127.533 76.6308 127.529 76.7403C127.524 76.8497 127.518 76.9635 127.509 77.0817C127.505 77.1955 127.498 77.3093 127.489 77.4231C127.485 77.5326 127.476 77.6332 127.463 77.7252H127.292L126.951 76.7862H125.946V80.693C126.06 80.7149 126.165 80.7368 126.262 80.7587C126.362 80.7806 126.459 80.8112 126.551 80.8506V81.041Z" fill="black"/>
<path d="M63.8669 69V67.0414C65.6679 66.186 67.5138 65.6457 69.4049 65.4206V25.3715C68.5044 25.1914 67.5814 24.9663 66.6359 24.6961C65.6904 24.381 64.7674 24.0433 63.8669 23.6831V21.7245H71.0257C71.8812 21.7245 72.6916 21.702 73.457 21.657C74.2675 21.612 75.1004 21.5669 75.9559 21.5219C76.8114 21.4769 77.7344 21.4319 78.7249 21.3868C79.7154 21.3418 80.841 21.3193 82.1017 21.3193C83.9027 21.3193 85.7262 21.4769 87.5722 21.7921C89.4632 22.0622 91.1516 22.6025 92.6374 23.4129C94.1682 24.2234 95.4064 25.3715 96.3519 26.8573C97.2974 28.2981 97.7701 30.1891 97.7701 32.5304C97.7701 33.701 97.59 34.8716 97.2299 36.0422C96.8697 37.2129 96.3069 38.316 95.5414 39.3515C94.8211 40.3421 93.8981 41.22 92.7725 41.9854C91.6468 42.7509 90.3186 43.3137 88.7878 43.6739V43.944C90.1385 44.1691 91.4668 44.5518 92.7725 45.0921C94.1232 45.6324 95.3163 46.3753 96.3519 47.3208C97.3874 48.2213 98.2204 49.3469 98.8507 50.6976C99.5261 52.0484 99.8638 53.6692 99.8638 55.5603C99.8638 57.9916 99.3235 60.0852 98.2429 61.8411C97.1623 63.5971 95.7441 65.0379 93.9881 66.1635C92.2772 67.2891 90.3186 68.122 88.1124 68.6623C85.9063 69.1576 83.6776 69.4052 81.4263 69.4052C79.8505 69.4052 78.072 69.3377 76.091 69.2026C74.1099 69.0675 72.1964 69 70.3504 69H63.8669ZM81.8991 65.8933C83.52 65.8933 85.0283 65.6457 86.424 65.1504C87.8648 64.6552 89.0805 63.9798 90.071 63.1243C91.1066 62.2238 91.917 61.1658 92.5023 59.9501C93.0876 58.6894 93.3803 57.3387 93.3803 55.8979C93.3803 54.097 93.0201 52.6112 92.2997 51.4405C91.6243 50.2249 90.6788 49.2794 89.4632 48.604C88.2925 47.8836 86.9193 47.3884 85.3435 47.1182C83.8126 46.8481 82.2143 46.713 80.5484 46.713H75.4831V65.353C76.1135 65.5331 76.8564 65.6682 77.7118 65.7583C78.6123 65.8483 80.0081 65.8933 81.8991 65.8933ZM78.86 43.2011C79.6254 43.2011 80.5259 43.1786 81.5614 43.1336C82.642 43.0435 83.52 42.9535 84.1953 42.8634C86.2664 42.143 87.9549 40.9949 89.2606 39.4191C90.6113 37.7982 91.2867 35.9072 91.2867 33.746C91.2867 30.7744 90.3862 28.5457 88.5852 27.0599C86.8293 25.5741 84.4655 24.8312 81.4939 24.8312C80.0981 24.8312 78.905 24.8537 77.9144 24.8987C76.9239 24.9438 76.1135 25.0113 75.4831 25.1013V43.2011H78.86ZM123.99 69H106.701V67.0414C108.457 66.231 110.258 65.6907 112.104 65.4206V25.3715C111.203 25.1914 110.303 24.9663 109.402 24.6961C108.502 24.381 107.601 24.0433 106.701 23.6831V21.7245H123.99V23.6831C123.18 24.0433 122.302 24.381 121.356 24.6961C120.411 24.9663 119.488 25.1914 118.587 25.3715V65.4206C119.533 65.6007 120.478 65.8258 121.424 66.0959C122.369 66.3661 123.225 66.6813 123.99 67.0414V69ZM168.332 65.7583C167.476 66.2535 166.463 66.7488 165.293 67.2441C164.167 67.6943 162.952 68.122 161.646 68.5272C160.385 68.8874 159.102 69.1801 157.796 69.4052C156.536 69.6754 155.342 69.8104 154.217 69.8104C150.615 69.8104 147.373 69.3377 144.492 68.3922C141.61 67.4016 139.156 65.9158 137.13 63.9348C135.104 61.9087 133.528 59.3648 132.403 56.3032C131.322 53.2415 130.782 49.5945 130.782 45.3623C130.782 40.9499 131.412 37.1904 132.673 34.0837C133.978 30.977 135.689 28.4557 137.805 26.5196C139.967 24.5385 142.398 23.1203 145.099 22.2648C147.846 21.3643 150.637 20.9141 153.474 20.9141C156.446 20.9141 158.944 21.1167 160.97 21.5219C163.042 21.8821 164.843 22.4449 166.373 23.2103C166.373 23.8857 166.351 24.7186 166.306 25.7092C166.261 26.6997 166.193 27.7353 166.103 28.8158C166.013 29.8964 165.901 30.977 165.766 32.0576C165.63 33.0932 165.495 34.0161 165.36 34.8266H163.604L160.093 25.1013C159.597 24.8312 158.764 24.6511 157.594 24.5611C156.423 24.471 155.275 24.426 154.149 24.426C151.898 24.426 149.759 24.8537 147.733 25.7092C145.707 26.5196 143.929 27.8028 142.398 29.5587C140.912 31.2697 139.719 33.4533 138.819 36.1098C137.918 38.7212 137.468 41.8053 137.468 45.3623C137.468 48.559 137.896 51.4405 138.751 54.0069C139.651 56.5733 140.867 58.7795 142.398 60.6255C143.974 62.4265 145.797 63.8222 147.868 64.8127C149.985 65.8033 152.258 66.2985 154.69 66.2985C155.59 66.2985 156.468 66.2085 157.324 66.0284C158.179 65.8483 158.967 65.6457 159.687 65.4206C160.408 65.1504 160.993 64.8803 161.443 64.6101C161.939 64.34 162.276 64.1149 162.456 63.9348V50.2924C161.286 50.2024 160.16 49.9998 159.079 49.6846C158.044 49.3694 157.008 49.0317 155.973 48.6715V46.713H172.519V48.6715C172.069 48.9867 171.529 49.2794 170.898 49.5495C170.268 49.8197 169.413 50.0673 168.332 50.2924V65.7583Z" fill="black"/>
<mask id="mask0_262_1745" style="mask-type:alpha" maskUnits="userSpaceOnUse" x="0" y="15" width="59" height="59">
<circle cx="29.0782" cy="44.086" r="29.0782" fill="black"/>
</mask>
<g mask="url(#mask0_262_1745)">
<circle cx="29.0782" cy="44.5547" r="29.0782" fill="black"/>
<circle cx="29.0783" cy="44.0862" r="27.4367" fill="black" stroke="white" stroke-width="0.469003"/>
<path fill-rule="evenodd" clip-rule="evenodd" d="M54.8734 30.0161L47.9068 39.0524L46.7444 37.8901L39.834 47.1834L37.4244 43.5689L28.9823 52.48L27.6375 50.4628L23.3601 56.166L19.5342 49.2317L17.8947 50.8712L16.8756 49.0368L14.0886 53.914L10.1164 47.3715L7.49801 52.1718L6.31221 51.2825L1.56899 54.5165L0.776367 53.354L6.3512 49.553L7.04142 50.0706L10.0511 44.5529L14.0519 51.1424L16.8929 46.1706L18.2188 48.5573L19.8623 46.9138L23.5405 53.5805L27.7051 48.0276L29.1743 50.2315L37.6164 41.3204L39.8968 44.741L46.5874 35.7432L47.7701 36.9259L53.9353 29.0781L54.8734 30.0161Z" fill="white"/>
<rect x="18.7603" y="60.2188" width="20.6361" height="13.8833" fill="white"/>
<path d="M37.0513 35.5599H37.2112L37.2696 35.411L38.9273 31.1808L40.5688 35.3697V38.9208H17.5877V35.3697L19.2292 31.1808L20.8868 35.411L20.9452 35.5599H21.1052H37.0513Z" fill="white" stroke="black" stroke-width="0.469003"/>
<path d="M29.0782 16.415L20.6361 34.1282L21.1051 35.325H37.0512L37.5202 34.1282L29.0782 16.415Z" fill="white"/>
<path fill-rule="evenodd" clip-rule="evenodd" d="M39.3964 39.1553H18.7603V58.3046H39.3964V39.1553ZM25.0917 55.3427H22.2777V42.4332C22.2777 42.4332 22.8053 41.7416 23.6847 41.7416C24.5641 41.7416 25.0917 42.4332 25.0917 42.4332V55.3427ZM30.4852 55.3427V42.4332C30.4852 42.4332 29.9575 41.7416 29.0782 41.7416C28.1988 41.7416 27.6712 42.4332 27.6712 42.4332V55.3427H30.4852ZM35.8788 42.4332V55.3427H33.0648V42.4332C33.0648 42.4332 33.5924 41.7416 34.4718 41.7416C35.3512 41.7416 35.8788 42.4332 35.8788 42.4332Z" fill="white"/>
<rect x="28.3748" y="69.1779" width="1.40701" height="4.22102" fill="black" stroke="black" stroke-width="0.469003"/>
<rect x="17.5877" y="58.0597" width="22.9811" height="2.4034" fill="white" stroke="black" stroke-width="0.469003"/>
</g>
</svg>
